<svg width="16" height="16" viewBox="0 0 16 16" fill="none" xmlns="http://www.w3.org/2000/svg">
<path d="M2 10V11H4.293L1 14.293L1.707 15L5 11.707V14H6V10H2Z" fill="#EBE9EB"/>
<path d="M15 2H11.5V3H13.2929L9.5 6.79295L7.3535 4.6465C7.25974 4.55276 7.13258 4.50011 7 4.50011C6.86742 4.50011 6.74026 4.55276 6.6465 4.6465L4 7.2929L4.7071 8L7 5.70705L9.1465 7.8535C9.24026 7.94724 9.36742 7.99989 9.5 7.99989C9.63258 7.99989 9.75974 7.94724 9.8535 7.8535L14 3.70705V5.5H15V2Z" fill="#EBE9EB"/>
<path d="M15 14H8V15H15V14Z" fill="#EBE9EB"/>
<path d="M2 1H1V8H2V1Z" fill="#EBE9EB"/>
</svg>
