<svg width="16" height="16" viewBox="0 0 16 16" fill="none" xmlns="http://www.w3.org/2000/svg">
<path d="M14 1H2C1.73488 1.0003 1.4807 1.10576 1.29323 1.29323C1.10576 1.4807 1.0003 1.73488 1 2V14C1.0003 14.2651 1.10576 14.5193 1.29323 14.7068C1.4807 14.8942 1.73488 14.9997 2 15H14C14.2651 14.9997 14.5193 14.8942 14.7068 14.7068C14.8942 14.5193 14.9997 14.2651 15 14V2C14.9997 1.73488 14.8942 1.4807 14.7068 1.29323C14.5193 1.10576 14.2651 1.0003 14 1ZM14 7H11.5V2H14V7ZM8 2H10.5V7H8V2ZM7 2V10H2V2H7ZM2 11H7V14H2V11ZM8 14V8H14V14H8Z" fill="#EBE9EB"/>
</svg>
