<svg width="16" height="16" viewBox="0 0 16 16" fill="none" xmlns="http://www.w3.org/2000/svg">
<path d="M8 11.5C7.30776 11.5 6.63107 11.2947 6.0555 10.9101C5.47993 10.5256 5.03133 9.97893 4.76642 9.33939C4.50151 8.69985 4.4322 7.99612 4.56725 7.31718C4.7023 6.63825 5.03564 6.01461 5.52513 5.52513C6.01461 5.03564 6.63825 4.7023 7.31718 4.56725C7.99612 4.4322 8.69985 4.50151 9.33939 4.76642C9.97893 5.03133 10.5256 5.47993 10.9101 6.0555C11.2947 6.63107 11.5 7.30776 11.5 8C11.499 8.92794 11.1299 9.81758 10.4737 10.4737C9.81758 11.1299 8.92794 11.499 8 11.5ZM8 5.5C7.50555 5.5 7.0222 5.64662 6.61107 5.92132C6.19995 6.19603 5.87952 6.58647 5.6903 7.04329C5.50108 7.50011 5.45157 8.00277 5.54804 8.48772C5.6445 8.97268 5.8826 9.41813 6.23223 9.76777C6.58186 10.1174 7.02732 10.3555 7.51227 10.452C7.99723 10.5484 8.49989 10.4989 8.95671 10.3097C9.41352 10.1205 9.80397 9.80005 10.0787 9.38892C10.3534 8.9778 10.5 8.49445 10.5 8C10.4992 7.33719 10.2356 6.70174 9.76693 6.23306C9.29825 5.76439 8.66281 5.50075 8 5.5Z" fill="#EBE9EB"/>
<path d="M15 3.20705L14.2929 2.5L12.618 4.175C12.3788 3.8866 12.1133 3.62107 11.825 3.38185L13.5 1.70705L12.7929 1L10.9883 2.8047C9.84626 2.14419 8.51809 1.87922 7.21003 2.05093C5.90196 2.22264 4.68717 2.82142 3.75429 3.75429C2.82142 4.68717 2.22264 5.90196 2.05093 7.21003C1.87922 8.51809 2.14419 9.84626 2.8047 10.9883L1 12.7929L1.70705 13.5L3.38205 11.825C3.6212 12.1134 3.88666 12.3789 4.175 12.6181L2.5 14.2929L3.20705 15L5.0117 13.1953C6.15374 13.8558 7.48191 14.1208 8.78998 13.9491C10.098 13.7774 11.3128 13.1786 12.2457 12.2457C13.1786 11.3128 13.7774 10.098 13.9491 8.78998C14.1208 7.48191 13.8558 6.15374 13.1953 5.0117L15 3.20705ZM8 13C7.01109 13 6.04439 12.7068 5.22215 12.1573C4.3999 11.6079 3.75904 10.827 3.3806 9.91342C3.00216 8.99979 2.90315 7.99445 3.09607 7.02455C3.289 6.05464 3.7652 5.16373 4.46447 4.46447C5.16373 3.7652 6.05464 3.289 7.02455 3.09607C7.99445 2.90315 8.99979 3.00216 9.91342 3.3806C10.827 3.75904 11.6079 4.3999 12.1573 5.22215C12.7068 6.04439 13 7.01109 13 8C12.9985 9.32562 12.4712 10.5965 11.5339 11.5339C10.5965 12.4712 9.32562 12.9985 8 13Z" fill="#EBE9EB"/>
</svg>
