<svg width="16" height="16" viewBox="0 0 16 16" fill="none" xmlns="http://www.w3.org/2000/svg">
<path d="M2.5 12.5V7.91405L0.70705 9.70705L0 9L3 6L6 9L5.29295 9.70705L3.5 7.91405V12.5H9.5V13.5H3.5C3.23488 13.4997 2.98071 13.3942 2.79324 13.2068C2.60578 13.0193 2.50032 12.7651 2.5 12.5Z" fill="#EBE9EB"/>
<path d="M12 11H14C14.2651 11.0003 14.5193 11.1057 14.7068 11.2932C14.8943 11.4807 14.9997 11.7349 15 12V14C14.9997 14.2651 14.8943 14.5193 14.7068 14.7068C14.5193 14.8943 14.2651 14.9997 14 15H12C11.7349 14.9997 11.4807 14.8943 11.2932 14.7068C11.1057 14.5193 11.0003 14.2651 11 14V12C11.0003 11.7349 11.1057 11.4807 11.2932 11.2932C11.4807 11.1057 11.7349 11.0003 12 11ZM14 14V12H11.9993L12 14H14Z" fill="#EBE9EB"/>
<path d="M13.5 3V7.58595L15.2929 5.79295L16 6.5L13 9.5L10 6.5L10.7071 5.79295L12.5 7.58595V3H6.5V2H12.5C12.7651 2.00032 13.0193 2.10578 13.2068 2.29324C13.3942 2.48071 13.4997 2.73488 13.5 3Z" fill="#EBE9EB"/>
<path d="M4 3H1V4H4V3Z" fill="#EBE9EB"/>
<path d="M5 1H1V2H5V1Z" fill="#EBE9EB"/>
</svg>
