<svg width="16" height="16" viewBox="0 0 16 16" fill="none" xmlns="http://www.w3.org/2000/svg">
<path d="M10 3C9.31198 2.99989 8.63145 3.14281 8.00161 3.4197C8.40411 3.59593 8.78156 3.82458 9.12416 4.0997C9.70986 3.9665 10.318 3.96691 10.9036 4.10091C11.4891 4.23491 12.0369 4.49905 12.5064 4.87374C12.9759 5.24843 13.3549 5.72404 13.6154 6.26526C13.8759 6.80649 14.0112 7.39944 14.0112 8.0001C14.0112 8.60076 13.8759 9.19371 13.6154 9.73494C13.3549 10.2762 12.9759 10.7518 12.5064 11.1265C12.0369 11.5011 11.4891 11.7653 10.9036 11.8993C10.318 12.0333 9.70986 12.0337 9.12416 11.9005C8.78156 12.1756 8.40411 12.4043 8.00161 12.5805C8.68271 12.8777 9.4215 13.0192 10.1642 12.9949C10.9069 12.9706 11.6349 12.781 12.2951 12.4399C12.9553 12.0988 13.5311 11.6148 13.9807 11.0231C14.4303 10.4315 14.7423 9.74699 14.8941 9.01953C15.0458 8.29208 15.0335 7.53994 14.8579 6.81787C14.6824 6.09579 14.348 5.42194 13.8792 4.84535C13.4104 4.26876 12.819 3.80394 12.148 3.48472C11.4769 3.1655 10.7431 2.99991 10 3Z" fill="#EBE9EB"/>
<path d="M6.00001 8C6.00149 8.908 6.31147 9.78855 6.87912 10.4972C7.44677 11.2059 8.23839 11.7008 9.12416 11.9005C9.70944 11.4328 10.182 10.8392 10.5067 10.164C10.8314 9.48883 11 8.74922 11 8C11 7.25078 10.8314 6.51117 10.5067 5.83598C10.182 5.16079 9.70944 4.56743 9.12416 4.0997C8.23839 4.2994 7.44677 4.79407 6.87912 5.50276C6.31147 6.21145 6.00149 7.092 6.00001 8Z" fill="#EBE9EB"/>
<path d="M5.00001 8C5.00125 7.02747 5.28579 6.07637 5.81885 5.26295C6.35191 4.44952 7.1104 3.80901 8.00161 3.4197C7.24064 3.08656 6.40866 2.94826 5.58083 3.0173C4.75301 3.08634 3.95543 3.36055 3.26016 3.81515C2.56489 4.26974 1.99384 4.8904 1.59861 5.62105C1.20337 6.3517 0.996399 7.1693 0.996399 8C0.996399 8.8307 1.20337 9.64831 1.59861 10.379C1.99384 11.1096 2.56489 11.7303 3.26016 12.1849C3.95543 12.6395 4.75301 12.9137 5.58083 12.9827C6.40866 13.0517 7.24064 12.9136 8.00161 12.5805C7.1104 12.1912 6.35191 11.5505 5.81885 10.7371C5.28579 9.92363 5.00125 8.97253 5.00001 8Z" fill="#EBE9EB"/>
</svg>
